# This file uses centimeters as units for non-parametric coordinates.

mtllib Box.mtl
g default
v -2.401436 0.000000 2.415322
v 3.846238 0.000000 2.415322
v -2.401436 7.085090 2.415322
v 3.846238 7.085090 2.415322
v -2.401436 7.085091 -0.024017
v 3.846238 7.085091 -0.024017
v -2.401436 0.000000 -0.024017
v 3.846238 -0.000000 -0.024017
v -2.401436 10.664358 -0.035738
v 3.846238 10.664358 -0.035738
v -2.401436 8.550543 3.413747
v 3.846238 8.550543 3.413747
v -2.401436 9.198929 2.484732
v 3.846238 9.198929 2.484732
v -2.401436 7.085090 2.415322
v -2.401436 7.085091 -0.024017
v 3.846238 7.085090 2.415322
v 3.846238 7.085091 -0.024017
v -0.958027 7.085091 1.803274
v -0.958027 7.085091 0.588030
v 2.432061 7.085091 1.803274
v 2.432061 7.085091 0.588030
v -2.401436 7.085207 0.011248
v 3.846238 7.085207 0.011248
v 3.846238 10.664474 -0.000473
v -2.401436 10.664474 -0.000473
vt 0.001931 0.001992
vt 0.535934 0.001992
vt 0.546562 0.546623
vt 0.001931 0.546623
vt 0.122268 0.358304
vt 0.460445 0.358304
vt 0.464376 0.792509
vt 0.135564 0.779762
vt 0.465994 0.907010
vt 0.137569 0.907010
vt 0.458561 0.946360
vt 0.145728 0.946360
vt 0.942552 0.680817
vt 0.603845 0.700171
vt 0.605373 0.337337
vt 0.938269 0.335168
vt 0.146751 0.210607
vt 0.451884 0.203945
vt 0.467224 0.328495
vt 0.139516 0.335158
vt 0.488732 0.407527
vt 0.572887 0.407527
vt 0.574997 0.865854
vt 0.488732 0.865854
vt 0.009336 0.353272
vt 0.124077 0.353272
vt 0.133443 0.790812
vt 0.017148 0.789525
vt 0.938679 0.944820
vt 0.601659 0.970118
vt 0.602526 0.877472
vt 0.926820 0.886448
vt 0.070938 0.661037
vt 0.062656 0.537745
vt 0.061998 0.550492
vt 0.061998 0.675069
vt 0.013503 0.793594
vt 0.137651 0.779019
vt 0.104381 0.908978
vt 0.056400 0.908360
vt 0.482603 0.803538
vt 0.596550 0.804374
vt 0.554180 0.908270
vt 0.502746 0.904310
vt 0.938679 0.678636
vt 0.601659 0.695402
vt 0.602526 0.878985
vt 0.926820 0.881336
vt 0.929738 0.967470
vt 0.601659 0.970118
vt 0.607064 0.878022
vt 0.926820 0.886448
vn 0.000000 0.000000 1.000000
vn 0.000000 0.000000 1.000000
vn 0.000000 -0.115979 0.993252
vn 0.000000 -0.115979 0.993252
vn 0.000000 0.000000 -1.000000
vn 0.000000 0.000000 -1.000000
vn 0.000000 0.000000 -1.000000
vn 0.000000 0.000000 -1.000000
vn -0.000000 -1.000000 -0.000000
vn -0.000000 -1.000000 -0.000000
vn -0.000000 -1.000000 -0.000000
vn -0.000000 -1.000000 -0.000000
vn 1.000000 0.000000 -0.000000
vn 1.000000 0.000000 -0.000000
vn 1.000000 0.000000 -0.000000
vn 1.000000 0.000000 -0.000000
vn -1.000000 -0.000000 -0.000000
vn -1.000000 -0.000000 -0.000000
vn -1.000000 -0.000000 -0.000000
vn -1.000000 -0.000000 -0.000000
vn 0.000000 0.003275 0.999995
vn 0.000000 0.003275 0.999995
vn 0.000000 0.003275 0.999995
vn 0.000000 0.003275 0.999995
vn 0.000000 -0.563049 0.826423
vn 0.000000 -0.563049 0.826423
vn 0.000000 0.820029 0.572322
vn 0.000000 0.820029 0.572322
vn 0.000000 0.820029 0.572322
vn 0.000000 0.820029 0.572322
vn 0.291660 0.956522 0.000000
vn 0.291660 0.956522 0.000000
vn 0.291660 0.956522 0.000000
vn 0.291660 0.956522 0.000000
vn 0.000000 0.000000 -0.000000
vn 0.000000 0.000000 -0.000000
vn 0.000000 0.000000 -0.000000
vn 0.000000 0.000000 -0.000000
vn -0.000000 -1.000000 -0.000000
vn -0.000000 -1.000000 -0.000000
vn -0.000000 -1.000000 -0.000000
vn -0.000000 -1.000000 -0.000000
vn 0.000000 1.000000 0.000000
vn 0.000000 1.000000 0.000000
vn 0.000000 1.000000 0.000000
vn 0.000000 1.000000 0.000000
vn -0.000000 -0.003275 -0.999995
vn -0.000000 -0.003275 -0.999995
vn -0.000000 -0.003275 -0.999995
vn -0.000000 -0.003275 -0.999995
vn -0.000000 -0.999995 0.003272
vn -0.000000 -0.999995 0.003272
vn -0.000000 -0.999995 0.003272
vn -0.000000 -0.999995 0.003272
vn 1.000000 0.000000 -0.000003
vn 1.000000 0.000000 -0.000003
vn 1.000000 0.000000 -0.000003
vn 1.000000 0.000000 -0.000003
vn 0.000000 0.999995 -0.003290
vn 0.000000 0.999995 -0.003290
vn 0.000000 0.999995 -0.003290
vn 0.000000 0.999995 -0.003290
vn -1.000000 0.000000 -0.000000
vn -1.000000 0.000000 -0.000000
vn -1.000000 0.000000 -0.000000
vn -1.000000 0.000000 -0.000000
s 1
g pCube1
usemtl initialShadingGroup
f 1/5/1 2/6/2 4/7/3 3/8/4
s off
f 5/13/5 6/14/6 8/15/7 7/16/8
f 7/17/9 8/18/10 2/19/11 1/20/12
f 2/21/13 8/22/14 6/23/15 4/24/16
f 7/25/17 1/26/18 3/27/19 5/28/20
f 23/49/21 24/50/22 25/51/23 26/52/24
s 1
f 3/8/4 4/7/3 12/9/25 11/10/26
s off
f 11/10/27 12/9/28 14/11/29 13/12/30
f 5/33/31 3/34/32 15/35/33 16/36/34
f 4/1/35 6/2/36 18/3/37 17/4/38
f 3/37/39 5/38/40 20/39/41 19/40/42
f 4/41/43 6/42/44 22/43/45 21/44/46
f 5/45/47 9/48/48 10/47/49 6/46/50
f 5/29/51 6/30/52 24/50/53 23/49/54
f 6/30/55 10/31/56 25/51/57 24/50/58
f 10/31/59 9/32/60 26/52/61 25/51/62
f 9/32/63 5/29/64 23/49/65 26/52/66