# This file uses centimeters as units for non-parametric coordinates.

mtllib Crayon.mtl
g default
v 0.801188 0.000000 -0.199207
v 0.692413 0.000000 -0.412689
v 0.522993 0.000000 -0.582109
v 0.309511 0.000000 -0.690883
v 0.072865 0.000000 -0.728365
v -0.163782 0.000000 -0.690883
v -0.377264 0.000000 -0.582109
v -0.546684 0.000000 -0.412689
v -0.655458 0.000000 -0.199207
v -0.692939 0.000000 0.037440
v -0.655458 0.000000 0.274086
v -0.546684 0.000000 0.487568
v -0.377264 0.000000 0.656988
v -0.163782 0.000000 0.765763
v 0.072865 0.000000 0.803244
v 0.309511 0.000000 0.765763
v 0.522993 0.000000 0.656988
v 0.692413 0.000000 0.487568
v 0.801187 0.000000 0.274086
v 0.838668 0.000000 0.037440
v 0.801188 7.613616 -0.199207
v 0.692413 7.613616 -0.412689
v 0.522993 7.613616 -0.582109
v 0.309511 7.613616 -0.690883
v 0.072865 7.613616 -0.728365
v -0.163782 7.613616 -0.690883
v -0.377264 7.613616 -0.582109
v -0.546684 7.613616 -0.412689
v -0.655458 7.613616 -0.199207
v -0.692939 7.613616 0.037440
v -0.655458 7.613616 0.274086
v -0.546684 7.613616 0.487568
v -0.377264 7.613616 0.656988
v -0.163782 7.613616 0.765763
v 0.072865 7.613616 0.803244
v 0.309511 7.613616 0.765763
v 0.522993 7.613616 0.656988
v 0.692413 7.613616 0.487568
v 0.801187 7.613616 0.274086
v 0.838668 7.613616 0.037440
v 0.072865 0.000000 0.037440
v 0.072865 3.806808 -0.728365
v -0.163782 3.806808 -0.690883
v -0.377264 3.806808 -0.582109
v -0.546684 3.806808 -0.412689
v -0.655458 3.806808 -0.199207
v -0.692939 3.806808 0.037440
v 0.072865 0.000000 -0.728365
v 0.072865 3.806808 -0.728365
v -0.163782 0.000000 -0.690883
v -0.163782 3.806808 -0.690883
v -0.377264 0.000000 -0.582109
v -0.377264 3.806808 -0.582109
v -0.546684 0.000000 -0.412689
v -0.546684 3.806808 -0.412689
v -0.655458 0.000000 -0.199207
v -0.655458 3.806808 -0.199207
v -0.692939 0.000000 0.037440
v -0.692939 3.806808 0.037440
v -0.655458 7.613616 -0.199207
v -0.692939 7.613616 0.037440
v 0.651620 7.613616 -0.150609
v 0.565183 7.613616 -0.320251
v 0.430555 7.613616 -0.454879
v 0.260914 7.613616 -0.541315
v 0.072865 7.613616 -0.571099
v -0.115184 7.613616 -0.541315
v -0.284826 7.613616 -0.454879
v -0.419454 7.613616 -0.320251
v -0.505890 7.613616 -0.150609
v -0.535674 7.613616 0.037440
v -0.505890 7.613616 0.225489
v -0.419454 7.613616 0.395130
v -0.284826 7.613616 0.529758
v -0.115184 7.613616 0.616195
v 0.072865 7.613616 0.645979
v 0.260913 7.613616 0.616195
v 0.430555 7.613616 0.529758
v 0.565183 7.613616 0.395130
v 0.651619 7.613616 0.225489
v 0.681403 7.613616 0.037440
v 0.109499 9.580892 0.025535
v 0.104030 9.580892 0.014797
v 0.095506 9.580891 0.006277
v 0.084766 9.580889 0.000812
v 0.072864 9.580890 -0.001076
v 0.060962 9.580891 0.000806
v 0.050224 9.580891 0.006278
v 0.041701 9.580892 0.014797
v 0.036230 9.580892 0.025536
v 0.034345 9.580892 0.037440
v 0.036229 9.580892 0.049344
v 0.041700 9.580892 0.060082
v 0.050224 9.580891 0.068602
v 0.060962 9.580890 0.074071
v 0.072864 9.580890 0.075956
v 0.084766 9.580890 0.074070
v 0.095504 9.580891 0.068600
v 0.104028 9.580892 0.060081
v 0.109498 9.580892 0.049343
v 0.111382 9.580892 0.037439
vt 0.581474 0.160838
vt 0.581470 0.155160
vt 0.981207 0.155157
vt 0.981211 0.160834
vt 0.581466 0.149483
vt 0.981203 0.149480
vt 0.981199 0.143802
vt 0.581536 0.251677
vt 0.781404 0.251675
vt 0.981273 0.251673
vt 0.581532 0.245999
vt 0.781401 0.245997
vt 0.981269 0.245996
vt 0.581528 0.240322
vt 0.781397 0.240320
vt 0.981266 0.240318
vt 0.581524 0.234644
vt 0.781393 0.234643
vt 0.981262 0.234641
vt 0.581520 0.228967
vt 0.781389 0.228965
vt 0.981258 0.228963
vt 0.581516 0.223289
vt 0.781385 0.223288
vt 0.981254 0.223286
vt 0.581513 0.217612
vt 0.981250 0.217609
vt 0.581509 0.211935
vt 0.981246 0.211931
vt 0.581505 0.206257
vt 0.981242 0.206254
vt 0.581501 0.200580
vt 0.981238 0.200576
vt 0.581497 0.194902
vt 0.981234 0.194899
vt 0.581493 0.189225
vt 0.981230 0.189222
vt 0.581489 0.183548
vt 0.981226 0.183544
vt 0.581485 0.177870
vt 0.981223 0.177867
vt 0.581481 0.172193
vt 0.981219 0.172189
vt 0.581477 0.166515
vt 0.981215 0.166512
vt 0.581491 0.186908
vt 0.781404 0.251675
vt 0.581536 0.251677
vt 0.781401 0.245997
vt 0.581532 0.245999
vt 0.781397 0.240320
vt 0.581528 0.240322
vt 0.781393 0.234643
vt 0.581524 0.234644
vt 0.781389 0.228965
vt 0.581520 0.228967
vt 0.781385 0.223288
vt 0.581516 0.223289
vt 0.981258 0.228963
vt 0.981254 0.223286
vt 0.981207 0.155157
vt 0.981211 0.160834
vt 0.981203 0.149480
vt 0.981199 0.143802
vt 0.981273 0.251673
vt 0.981269 0.245996
vt 0.981265 0.240318
vt 0.981262 0.234641
vt 0.981258 0.228963
vt 0.981254 0.223286
vt 0.981250 0.217609
vt 0.981246 0.211931
vt 0.981242 0.206254
vt 0.981238 0.200576
vt 0.981234 0.194899
vt 0.981230 0.189222
vt 0.981226 0.183544
vt 0.981223 0.177867
vt 0.981219 0.172189
vt 0.981215 0.166512
vt 0.990196 0.138124
vt 0.990200 0.138124
vt 0.990192 0.138124
vt 0.989609 0.251672
vt 0.989605 0.245995
vt 0.990254 0.138124
vt 0.990251 0.138124
vt 0.990247 0.138124
vt 0.990243 0.138124
vt 0.990239 0.138124
vt 0.990235 0.138124
vt 0.990231 0.138124
vt 0.990227 0.138124
vt 0.990223 0.138124
vt 0.990220 0.138124
vt 0.990216 0.138124
vt 0.990212 0.138124
vt 0.990208 0.138124
vt 0.990204 0.138124
vt 0.781327 0.138126
vt 0.581462 0.143806
vt 0.581458 0.138128
vt 0.581454 0.132451
vt 0.981195 0.138125
vt 0.981195 0.138125
vt 0.989535 0.143802
vt 0.989531 0.138123
vt 0.989527 0.132447
vt 0.990177 0.138124
vt 0.990173 0.138124
vt 0.990169 0.138124
vt 0.990165 0.138124
vt 0.990161 0.138124
vt 0.990158 0.138124
vt 0.990154 0.138124
vt 0.990149 0.138124
vt 0.990146 0.138124
vt 0.990142 0.138124
vt 0.990138 0.138124
vt 0.990134 0.138124
vt 0.990130 0.138124
vt 0.990126 0.138124
vt 0.990122 0.138124
vt 0.990118 0.138124
vt 0.990114 0.138124
vn 0.951057 0.000000 -0.309016
vn 0.809017 0.000000 -0.587785
vn 0.809017 0.000000 -0.587785
vn 0.951057 0.000000 -0.309016
vn 0.587785 0.000000 -0.809017
vn 0.587785 0.000000 -0.809017
vn 0.309017 0.000000 -0.951057
vn 0.309017 0.000000 -0.951057
vn 0.156434 0.000000 -0.987688
vn 0.156434 0.000000 -0.987688
vn 0.156434 0.000000 -0.987688
vn -0.156435 0.000000 -0.987688
vn -0.156435 0.000000 -0.987688
vn -0.156435 0.000000 -0.987688
vn -0.156435 0.000000 -0.987688
vn -0.156435 0.000000 -0.987688
vn -0.156435 0.000000 -0.987688
vn -0.453991 0.000000 -0.891006
vn -0.453991 0.000000 -0.891006
vn -0.453991 0.000000 -0.891006
vn -0.453991 0.000000 -0.891006
vn -0.453991 0.000000 -0.891006
vn -0.453991 0.000000 -0.891006
vn -0.707107 0.000000 -0.707107
vn -0.707107 0.000000 -0.707107
vn -0.707107 0.000000 -0.707107
vn -0.707107 0.000000 -0.707107
vn -0.707107 0.000000 -0.707107
vn -0.707107 0.000000 -0.707107
vn -0.891007 0.000000 -0.453990
vn -0.891007 0.000000 -0.453990
vn -0.891007 0.000000 -0.453990
vn -0.891007 0.000000 -0.453990
vn -0.891007 0.000000 -0.453990
vn -0.891007 0.000000 -0.453990
vn -0.987688 0.000000 -0.156434
vn -0.987688 0.000000 -0.156434
vn -0.987688 0.000000 -0.156434
vn -0.987688 0.000000 -0.156434
vn -0.987688 0.000000 -0.156434
vn -0.987688 0.000000 -0.156434
vn -0.987688 0.000000 0.156434
vn -0.951057 0.000000 0.309017
vn -0.951057 0.000000 0.309017
vn -0.987688 0.000000 0.156434
vn -0.987688 0.000000 0.156434
vn -0.809017 0.000000 0.587785
vn -0.809017 0.000000 0.587785
vn -0.587785 0.000000 0.809017
vn -0.587785 0.000000 0.809017
vn -0.309017 0.000000 0.951057
vn -0.309017 0.000000 0.951057
vn 0.000000 0.000000 1.000000
vn 0.000000 0.000000 1.000000
vn 0.309017 0.000000 0.951057
vn 0.309017 0.000000 0.951057
vn 0.587785 0.000000 0.809017
vn 0.587785 0.000000 0.809017
vn 0.809017 0.000000 0.587785
vn 0.809017 0.000000 0.587785
vn 0.951057 0.000000 0.309017
vn 0.951057 0.000000 0.309017
vn 1.000000 0.000000 0.000001
vn 1.000000 0.000000 0.000001
vn 0.000000 -1.000000 -0.000001
vn 0.000000 -1.000000 -0.000001
vn 0.000000 -1.000000 -0.000000
vn 0.000000 -1.000000 -0.000000
vn 0.000000 -1.000000 0.000000
vn 0.000000 -1.000000 0.000000
vn 0.000000 -1.000000 0.000000
vn 0.000000 -1.000000 0.000000
vn 0.000000 -1.000000 -0.000001
vn 0.000000 -1.000000 -0.000000
vn 0.000000 -1.000000 0.000000
vn 0.000000 -1.000000 -0.000000
vn 0.000000 -1.000000 0.000001
vn 0.000000 -1.000000 -0.000000
vn 0.000000 -1.000000 0.000001
vn 0.000000 -1.000000 -0.000000
vn 0.000000 -1.000000 -0.000000
vn 0.000000 -1.000000 0.000000
vn 0.000000 -1.000000 0.000001
vn 0.000000 -1.000000 0.000001
vn 0.000000 -1.000000 -0.000001
vn 0.000000 0.000000 0.000000
vn 0.000000 0.000000 0.000000
vn 0.000000 0.000000 0.000000
vn 0.000000 0.000000 0.000000
vn 0.000000 0.000000 0.000000
vn 0.000000 0.000000 0.000000
vn 0.000000 0.000000 0.000000
vn 0.000000 0.000000 0.000000
vn 0.000000 0.000000 0.000000
vn 0.000000 0.000000 0.000000
vn 0.000000 0.000000 0.000000
vn 0.000000 0.000000 0.000000
vn 0.000000 0.000000 0.000000
vn 0.000000 0.000000 0.000000
vn 0.000000 0.000000 0.000000
vn 0.000000 0.000000 0.000000
vn 0.000000 0.000000 0.000000
vn 0.000000 0.000000 0.000000
vn 0.000000 0.000000 0.000000
vn 0.000000 0.000000 0.000000
vn 0.000000 0.000000 0.000000
vn 0.000000 0.000000 0.000000
vn 0.000000 0.000000 0.000000
vn 0.000000 0.000000 0.000000
vn 0.000000 0.000000 0.000000
vn 0.000000 0.000000 0.000000
vn 0.000000 0.000000 0.000000
vn 0.000000 0.000000 0.000000
vn 0.000000 0.000000 0.000000
vn 0.000000 0.000000 0.000000
vn 0.000000 0.000000 0.000000
vn 0.000000 0.000000 0.000000
vn 0.000000 1.000000 -0.000000
vn 0.000000 1.000000 -0.000002
vn 0.000000 1.000000 -0.000002
vn 0.000000 1.000000 0.000000
vn 0.000000 1.000000 -0.000000
vn 0.000000 1.000000 -0.000000
vn 0.000000 1.000000 0.000002
vn 0.000000 1.000000 0.000002
vn 0.000000 1.000000 0.000002
vn 0.000000 1.000000 0.000002
vn 0.000000 1.000000 0.000001
vn 0.000000 1.000000 0.000001
vn 0.000000 1.000000 -0.000000
vn 0.000000 1.000000 -0.000000
vn 0.000000 1.000000 -0.000001
vn 0.000000 1.000000 -0.000001
vn 0.000000 1.000000 -0.000000
vn 0.000000 1.000000 -0.000000
vn 0.000000 1.000000 0.000001
vn 0.000000 1.000000 0.000001
vn 0.000000 1.000000 0.000002
vn 0.000000 1.000000 0.000002
vn 0.000000 1.000000 0.000001
vn 0.000000 1.000000 0.000001
vn 0.000000 1.000000 -0.000000
vn 0.000000 1.000000 0.000000
vn 0.000000 1.000000 0.000000
vn 0.000000 1.000000 -0.000000
vn 0.000000 1.000000 0.000000
vn 0.000000 1.000000 0.000000
vn 0.000000 1.000000 -0.000001
vn 0.000000 1.000000 -0.000001
vn 0.000000 1.000000 -0.000000
vn 0.000000 1.000000 -0.000000
vn 0.000000 1.000000 0.000001
vn 0.000000 1.000000 0.000001
vn 0.000000 1.000000 -0.000000
vn 0.000000 1.000000 -0.000000
vn 0.000000 1.000000 -0.000000
vn 0.000000 1.000000 -0.000000
vn 0.913487 0.278303 -0.296798
vn 0.777052 0.278303 -0.564568
vn 0.777053 0.278303 -0.564566
vn 0.913488 0.278304 -0.296794
vn 0.564545 0.278305 -0.777069
vn 0.564546 0.278305 -0.777068
vn 0.296801 0.278305 -0.913486
vn 0.296801 0.278305 -0.913485
vn 0.000017 0.278306 -0.960493
vn 0.000016 0.278306 -0.960493
vn -0.296805 0.278305 -0.913484
vn -0.296806 0.278305 -0.913484
vn -0.564558 0.278304 -0.777059
vn -0.564559 0.278304 -0.777058
vn -0.777053 0.278304 -0.564567
vn -0.777054 0.278304 -0.564566
vn -0.913485 0.278303 -0.296804
vn -0.913485 0.278303 -0.296802
vn -0.960493 0.278303 -0.000003
vn -0.960493 0.278303 -0.000005
vn -0.913485 0.278303 0.296803
vn -0.913486 0.278303 0.296801
vn -0.777052 0.278303 0.564569
vn -0.777052 0.278303 0.564568
vn -0.564553 0.278304 0.777063
vn -0.564555 0.278304 0.777062
vn -0.296804 0.278305 0.913484
vn -0.296806 0.278305 0.913484
vn 0.000003 0.278305 0.960493
vn 0.000005 0.278305 0.960493
vn 0.296809 0.278305 0.913483
vn 0.296812 0.278305 0.913482
vn 0.564554 0.278305 0.777062
vn 0.564556 0.278305 0.777061
vn 0.777051 0.278304 0.564570
vn 0.777051 0.278304 0.564569
vn 0.913485 0.278304 0.296803
vn 0.913486 0.278304 0.296801
vn 0.960493 0.278303 0.000003
vn 0.960493 0.278303 0.000004
vn 0.000002 1.000000 0.000001
vn 0.000002 1.000000 0.000001
vn 0.000002 1.000000 0.000001
vn 0.000002 1.000000 0.000001
vn 0.000002 1.000000 0.000001
vn 0.000002 1.000000 0.000001
vn 0.000002 1.000000 0.000001
vn 0.000002 1.000000 0.000001
vn 0.000002 1.000000 0.000001
vn 0.000002 1.000000 0.000001
vn 0.000002 1.000000 0.000001
vn 0.000002 1.000000 0.000001
vn 0.000002 1.000000 0.000001
vn 0.000002 1.000000 0.000001
vn 0.000002 1.000000 0.000001
vn 0.000002 1.000000 0.000001
vn 0.000002 1.000000 0.000001
vn 0.000002 1.000000 0.000001
vn 0.000002 1.000000 0.000001
vn 0.000002 1.000000 0.000001
s 1
g pCylinder1
usemtl initialShadingGroup
f 1/1/1 2/2/2 22/3/3 21/4/4
f 2/2/2 3/5/5 23/6/6 22/3/3
f 3/5/5 4/101/7 24/7/8 23/6/6
f 4/101/7 5/102/9 42/100/10 25/104/11 24/7/8
s off
f 5/8/12 6/11/13 43/12/14 26/13/15 25/10/16 42/9/17
f 6/11/18 7/14/19 44/15/20 27/16/21 26/13/22 43/12/23
f 7/14/24 8/17/25 45/18/26 28/19/27 27/16/28 44/15/29
f 8/17/30 9/20/31 46/21/32 29/22/33 28/19/34 45/18/35
f 9/20/36 10/23/37 47/24/38 30/25/39 29/22/40 46/21/41
s 1
f 10/23/42 11/26/43 31/27/44 30/25/45 47/24/46
f 11/26/43 12/28/47 32/29/48 31/27/44
f 12/28/47 13/30/49 33/31/50 32/29/48
f 13/30/49 14/32/51 34/33/52 33/31/50
f 14/32/51 15/34/53 35/35/54 34/33/52
f 15/34/53 16/36/55 36/37/56 35/35/54
f 16/36/55 17/38/57 37/39/58 36/37/56
f 17/38/57 18/40/59 38/41/60 37/39/58
f 18/40/59 19/42/61 39/43/62 38/41/60
f 19/42/61 20/44/63 40/45/64 39/43/62
f 20/44/63 1/1/1 21/4/4 40/45/64
s 3
f 2/2/65 1/1/66 41/46/67
f 3/5/68 2/2/65 41/46/67
f 4/101/69 3/5/68 41/46/67
f 5/102/70 4/101/69 41/46/67
f 6/103/71 5/102/70 41/46/67
f 7/14/72 6/103/71 41/46/67
f 8/17/73 7/14/72 41/46/67
f 9/20/74 8/17/73 41/46/67
f 10/23/75 9/20/74 41/46/67
f 11/26/76 10/23/75 41/46/67
f 12/28/77 11/26/76 41/46/67
f 13/30/78 12/28/77 41/46/67
f 14/32/79 13/30/78 41/46/67
f 15/34/80 14/32/79 41/46/67
f 16/36/81 15/34/80 41/46/67
f 17/38/82 16/36/81 41/46/67
f 18/40/83 17/38/82 41/46/67
f 19/42/84 18/40/83 41/46/67
f 20/44/85 19/42/84 41/46/67
f 1/1/66 20/44/85 41/46/67
s off
f 5/8/86 42/9/87 49/47/88 48/48/89
f 6/11/90 43/12/91 51/49/92 50/50/93
f 7/14/94 44/15/95 53/51/96 52/52/97
f 8/17/98 45/18/99 55/53/100 54/54/101
f 9/20/102 46/21/103 57/55/104 56/56/105
f 10/23/106 47/24/107 59/57/108 58/58/109
f 46/21/110 29/22/111 60/59/112 57/55/113
f 47/24/114 30/25/115 61/60/116 59/57/117
s 4
f 21/4/118 22/3/119 63/61/120 62/62/121
f 22/3/119 23/6/122 64/63/123 63/61/120
f 23/6/122 24/7/124 65/64/125 64/63/123
f 24/7/124 25/104/126 66/105/127 65/64/125
f 25/10/126 26/13/128 67/66/129 66/65/127
f 26/13/128 27/16/130 68/67/131 67/66/129
f 27/16/130 28/19/132 69/68/133 68/67/131
f 28/19/132 29/22/134 70/69/135 69/68/133
f 29/22/134 30/25/136 71/70/137 70/69/135
f 30/25/136 31/27/138 72/71/139 71/70/137
f 31/27/138 32/29/140 73/72/141 72/71/139
f 32/29/140 33/31/142 74/73/143 73/72/141
f 33/31/142 34/33/144 75/74/145 74/73/143
f 34/33/144 35/35/146 76/75/147 75/74/145
f 35/35/146 36/37/148 77/76/149 76/75/147
f 36/37/148 37/39/150 78/77/151 77/76/149
f 37/39/150 38/41/152 79/78/153 78/77/151
f 38/41/152 39/43/154 80/79/155 79/78/153
f 39/43/154 40/45/156 81/80/157 80/79/155
f 40/45/156 21/4/118 62/62/121 81/80/157
s 5
f 62/62/158 63/61/159 83/81/160 82/82/161
f 63/61/159 64/63/162 84/83/163 83/81/160
f 64/63/162 65/64/164 85/106/165 84/83/163
f 65/64/164 66/105/166 86/107/167 85/106/165
f 66/65/166 67/66/168 87/85/169 86/84/167
f 67/66/168 68/67/170 88/86/171 87/85/169
f 68/67/170 69/68/172 89/87/173 88/86/171
f 69/68/172 70/69/174 90/88/175 89/87/173
f 70/69/174 71/70/176 91/89/177 90/88/175
f 71/70/176 72/71/178 92/90/179 91/89/177
f 72/71/178 73/72/180 93/91/181 92/90/179
f 73/72/180 74/73/182 94/92/183 93/91/181
f 74/73/182 75/74/184 95/93/185 94/92/183
f 75/74/184 76/75/186 96/94/187 95/93/185
f 76/75/186 77/76/188 97/95/189 96/94/187
f 77/76/188 78/77/190 98/96/191 97/95/189
f 78/77/190 79/78/192 99/97/193 98/96/191
f 79/78/192 80/79/194 100/98/195 99/97/193
f 80/79/194 81/80/196 101/99/197 100/98/195
f 81/80/196 62/62/158 82/82/161 101/99/197
s off
f 83/124/198 84/125/199 85/106/200 86/107/201 87/108/202 88/109/203 89/110/204 90/111/205 91/112/206 92/113/207 93/114/208 94/115/209 95/116/210 96/117/211 97/118/212 98/119/213 99/120/214 100/121/215 101/122/216 82/123/217